<svg width="800" height="800" xmlns="http://www.w3.org/2000/svg">
  <defs>
    <linearGradient id="afro-gradient" x1="0%" y1="0%" x2="0%" y2="100%">
      <stop offset="0%" style="stop-color:#FF8C00;stop-opacity:1" />
      <stop offset="100%" style="stop-color:#DC143C;stop-opacity:1" />
    </linearGradient>
  </defs>
  <rect width="800" height="800" fill="url(#afro-gradient)"/>
  <rect width="800" height="800" fill="rgba(0,0,0,0.3)"/>
  <!-- African geometric patterns -->
  <g stroke="#FFD700" stroke-width="2" fill="none" opacity="0.6">
    <polygon points="100,70 130,100 100,130 70,100"/>
    <polygon points="220,70 250,100 220,130 190,100"/>
    <polygon points="340,70 370,100 340,130 310,100"/>
    <polygon points="460,70 490,100 460,130 430,100"/>
    <polygon points="580,70 610,100 580,130 550,100"/>
    <polygon points="700,70 730,100 700,130 670,100"/>

    <polygon points="100,190 130,220 100,250 70,220"/>
    <polygon points="220,190 250,220 220,250 190,220"/>
    <polygon points="340,190 370,220 340,250 310,220"/>
    <polygon points="460,190 490,220 460,250 430,220"/>
    <polygon points="580,190 610,220 580,250 550,220"/>
    <polygon points="700,190 730,220 700,250 670,220"/>

    <polygon points="100,310 130,340 100,370 70,340"/>
    <polygon points="220,310 250,340 220,370 190,340"/>
    <polygon points="340,310 370,340 340,370 310,340"/>
    <polygon points="460,310 490,340 460,370 430,340"/>
    <polygon points="580,310 610,340 580,370 550,340"/>
    <polygon points="700,310 730,340 700,370 670,340"/>
  </g>
</svg>
