<svg width="800" height="800" xmlns="http://www.w3.org/2000/svg">
  <defs>
    <linearGradient id="house-gradient" x1="0%" y1="0%" x2="0%" y2="100%">
      <stop offset="0%" style="stop-color:#8A2BE2;stop-opacity:1" />
      <stop offset="100%" style="stop-color:#00BFFF;stop-opacity:1" />
    </linearGradient>
  </defs>
  <rect width="800" height="800" fill="url(#house-gradient)"/>
  <rect width="800" height="800" fill="rgba(0,0,0,0.35)"/>
  <!-- Equalizer/waveform bars -->
  <rect x="50" y="300" width="25" height="200" fill="#00FFFF" opacity="0.8"/>
  <rect x="85" y="250" width="25" height="300" fill="#00FFFF" opacity="0.8"/>
  <rect x="120" y="320" width="25" height="160" fill="#00FFFF" opacity="0.8"/>
  <rect x="155" y="280" width="25" height="240" fill="#00FFFF" opacity="0.8"/>
  <rect x="190" y="200" width="25" height="400" fill="#00FFFF" opacity="0.8"/>
  <rect x="225" y="260" width="25" height="280" fill="#00FFFF" opacity="0.8"/>
  <rect x="260" y="300" width="25" height="200" fill="#00FFFF" opacity="0.8"/>
  <rect x="295" y="230" width="25" height="340" fill="#00FFFF" opacity="0.8"/>
  <rect x="330" y="270" width="25" height="260" fill="#00FFFF" opacity="0.8"/>
  <rect x="365" y="180" width="25" height="440" fill="#00FFFF" opacity="0.8"/>
  <rect x="400" y="290" width="25" height="220" fill="#00FFFF" opacity="0.8"/>
  <rect x="435" y="240" width="25" height="320" fill="#00FFFF" opacity="0.8"/>
  <rect x="470" y="310" width="25" height="180" fill="#00FFFF" opacity="0.8"/>
  <rect x="505" y="260" width="25" height="280" fill="#00FFFF" opacity="0.8"/>
  <rect x="540" y="210" width="25" height="380" fill="#00FFFF" opacity="0.8"/>
  <rect x="575" y="280" width="25" height="240" fill="#00FFFF" opacity="0.8"/>
  <rect x="610" y="300" width="25" height="200" fill="#00FFFF" opacity="0.8"/>
  <rect x="645" y="250" width="25" height="300" fill="#00FFFF" opacity="0.8"/>
  <rect x="680" y="320" width="25" height="160" fill="#00FFFF" opacity="0.8"/>
  <rect x="715" y="290" width="25" height="220" fill="#00FFFF" opacity="0.8"/>
</svg>
